{
  "accessors": [
    {
      "bufferView": 2,
      "componentType": 5126,
      "count": 9157,
      "max": [
        14.909201622009277,
        9.011839866638184,
        11.260323524475098
      ],
      "min": [
        -13.801983833312988,
        -9.108104705810547,
        -5.800656795501709
      ],
      "type": "VEC3"
    },
    {
      "bufferView": 2,
      "byteOffset": 109884,
      "componentType": 5126,
      "count": 9157,
      "max": [
        0.9991456270217896,
        0.9997699856758118,
        0.999289870262146
      ],
      "min": [
        -0.9997263550758362,
        -0.9999178647994995,
        -0.999995768070221
      ],
      "type": "VEC3"
    },
    {
      "bufferView": 1,
      "componentType": 5126,
      "count": 9157,
      "max": [
        0.9977229833602905,
        0.9995430111885071
      ],
      "min": [
        0.0004579999949783087,
        0.018563000485301018
      ],
      "type": "VEC2"
    },
    {
      "bufferView": 0,
      "componentType": 5125,
      "count": 47988,
      "type": "SCALAR"
    }
  ],
  "asset": {
    "extras": {
      "author": "Olof Moleman (https://sketchfab.com/lordtrilobite)",
      "license": "CC-BY-NC-4.0 (http://creativecommons.org/licenses/by-nc/4.0/)",
      "source": "https://sketchfab.com/3d-models/theropod-toe-bone-92855f7891cc43b280d8acf5e9df70c6",
      "title": "Theropod Toe Bone"
    },
    "generator": "Sketchfab-13.74.0",
    "version": "2.0"
  },
  "bufferViews": [
    {
      "buffer": 0,
      "byteLength": 191952,
      "name": "floatBufferViews",
      "target": 34963
    },
    {
      "buffer": 0,
      "byteLength": 73256,
      "byteOffset": 191952,
      "byteStride": 8,
      "name": "floatBufferViews",
      "target": 34962
    },
    {
      "buffer": 0,
      "byteLength": 219768,
      "byteOffset": 265208,
      "byteStride": 12,
      "name": "floatBufferViews",
      "target": 34962
    }
  ],
  "buffers": [
    {
      "byteLength": 484976,
      "uri": "scene.bin"
    }
  ],
  "images": [
    {
      "uri": "textures/SPinosaur_phalanx01SPinosaur_phalanx01_baseColor.png"
    },
    {
      "uri": "textures/SPinosaur_phalanx01SPinosaur_phalanx01_metallicRoughness.png"
    }
  ],
  "materials": [
    {
      "name": "SPinosaur_phalanx01SPinosaur_phalanx01",
      "pbrMetallicRoughness": {
        "baseColorTexture": {
          "index": 0
        },
        "metallicFactor": 0.0,
        "metallicRoughnessTexture": {
          "index": 1
        }
      }
    }
  ],
  "meshes": [
    {
      "name": "Object_0",
      "primitives": [
        {
          "attributes": {
            "NORMAL": 1,
            "POSITION": 0,
            "TEXCOORD_0": 2
          },
          "indices": 3,
          "material": 0,
          "mode": 4
        }
      ]
    }
  ],
  "nodes": [
    {
      "children": [
        1
      ],
      "matrix": [
        1.0,
        0.0,
        0.0,
        0.0,
        0.0,
        2.220446049250313e-16,
        -1.0,
        0.0,
        0.0,
        1.0,
        2.220446049250313e-16,
        0.0,
        0.0,
        0.0,
        0.0,
        1.0
      ],
      "name": "Sketchfab_model"
    },
    {
      "children": [
        2
      ],
      "name": "Spinosaur_phalanx01_scaled.obj.cleaner.materialmerger.gles"
    },
    {
      "mesh": 0,
      "name": "Object_2"
    }
  ],
  "samplers": [
    {
      "magFilter": 9729,
      "minFilter": 9987,
      "wrapS": 10497,
      "wrapT": 10497
    }
  ],
  "scene": 0,
  "scenes": [
    {
      "name": "Sketchfab_Scene",
      "nodes": [
        0
      ]
    }
  ],
  "textures": [
    {
      "sampler": 0,
      "source": 0
    },
    {
      "sampler": 0,
      "source": 1
    }
  ]
}
